<mxfile host="app.diagrams.net" modified="2024-05-28T13:38:03.578Z" agent="Mozilla/5.0 (Windows NT 10.0; Win64; x64) AppleWebKit/537.36 (KHTML, like Gecko) Chrome/122.0.0.0 YaBrowser/24.4.0.0 Safari/537.36" etag="7xzvm2IDItq0t3fLp05i" version="24.4.9" type="github">
  <diagram name="Page-1" id="42789a77-a242-8287-6e28-9cd8cfd52e62">
    <mxGraphModel dx="2291" dy="704" grid="1" gridSize="10" guides="1" tooltips="1" connect="1" arrows="1" fold="1" page="1" pageScale="1" pageWidth="1100" pageHeight="850" background="none" math="0" shadow="0">
      <root>
        <mxCell id="0" />
        <mxCell id="1" parent="0" />
        <mxCell id="lRqvwbuOuGOCH_KBD1G7-10" style="edgeStyle=orthogonalEdgeStyle;rounded=0;orthogonalLoop=1;jettySize=auto;html=1;" parent="1" source="lRqvwbuOuGOCH_KBD1G7-3" target="lRqvwbuOuGOCH_KBD1G7-4" edge="1">
          <mxGeometry relative="1" as="geometry" />
        </mxCell>
        <mxCell id="lRqvwbuOuGOCH_KBD1G7-3" value="Описания Идеи" style="ellipse;whiteSpace=wrap;html=1;rounded=0;shadow=1;comic=0;labelBackgroundColor=none;strokeWidth=1;fontFamily=Verdana;fontSize=12;align=center;" parent="1" vertex="1">
          <mxGeometry x="-120" y="880" width="160" height="120" as="geometry" />
        </mxCell>
        <mxCell id="lRqvwbuOuGOCH_KBD1G7-68" style="edgeStyle=orthogonalEdgeStyle;rounded=0;orthogonalLoop=1;jettySize=auto;html=1;" parent="1" source="lRqvwbuOuGOCH_KBD1G7-4" target="lRqvwbuOuGOCH_KBD1G7-9" edge="1">
          <mxGeometry relative="1" as="geometry" />
        </mxCell>
        <mxCell id="rJpCT1kLhdsQ0lRlRKhG-2" style="edgeStyle=orthogonalEdgeStyle;rounded=0;orthogonalLoop=1;jettySize=auto;html=1;" edge="1" parent="1" source="lRqvwbuOuGOCH_KBD1G7-4" target="rJpCT1kLhdsQ0lRlRKhG-1">
          <mxGeometry relative="1" as="geometry" />
        </mxCell>
        <mxCell id="lRqvwbuOuGOCH_KBD1G7-4" value="Описание стека" style="ellipse;whiteSpace=wrap;html=1;rounded=0;shadow=1;comic=0;labelBackgroundColor=none;strokeWidth=1;fontFamily=Verdana;fontSize=12;align=center;" parent="1" vertex="1">
          <mxGeometry x="-120" y="680" width="160" height="120" as="geometry" />
        </mxCell>
        <mxCell id="lRqvwbuOuGOCH_KBD1G7-21" style="edgeStyle=orthogonalEdgeStyle;rounded=0;orthogonalLoop=1;jettySize=auto;html=1;entryX=0.5;entryY=0;entryDx=0;entryDy=0;" parent="1" source="lRqvwbuOuGOCH_KBD1G7-7" target="lRqvwbuOuGOCH_KBD1G7-15" edge="1">
          <mxGeometry relative="1" as="geometry" />
        </mxCell>
        <mxCell id="lRqvwbuOuGOCH_KBD1G7-7" value="Подготовка всего для задачи" style="ellipse;whiteSpace=wrap;html=1;rounded=0;shadow=1;comic=0;labelBackgroundColor=none;strokeWidth=1;fontFamily=Verdana;fontSize=12;align=center;" parent="1" vertex="1">
          <mxGeometry x="680" y="680" width="160" height="120" as="geometry" />
        </mxCell>
        <mxCell id="lRqvwbuOuGOCH_KBD1G7-19" style="edgeStyle=orthogonalEdgeStyle;rounded=0;orthogonalLoop=1;jettySize=auto;html=1;" parent="1" source="lRqvwbuOuGOCH_KBD1G7-8" target="lRqvwbuOuGOCH_KBD1G7-18" edge="1">
          <mxGeometry relative="1" as="geometry" />
        </mxCell>
        <mxCell id="lRqvwbuOuGOCH_KBD1G7-8" value="Определение задач в ветке" style="ellipse;whiteSpace=wrap;html=1;rounded=0;shadow=1;comic=0;labelBackgroundColor=none;strokeWidth=1;fontFamily=Verdana;fontSize=12;align=center;" parent="1" vertex="1">
          <mxGeometry x="280" y="680" width="160" height="120" as="geometry" />
        </mxCell>
        <mxCell id="lRqvwbuOuGOCH_KBD1G7-12" style="edgeStyle=orthogonalEdgeStyle;rounded=0;orthogonalLoop=1;jettySize=auto;html=1;" parent="1" source="lRqvwbuOuGOCH_KBD1G7-9" target="lRqvwbuOuGOCH_KBD1G7-8" edge="1">
          <mxGeometry relative="1" as="geometry" />
        </mxCell>
        <mxCell id="lRqvwbuOuGOCH_KBD1G7-9" value="Разбиение на ветки разработки" style="ellipse;whiteSpace=wrap;html=1;rounded=0;shadow=1;comic=0;labelBackgroundColor=none;strokeWidth=1;fontFamily=Verdana;fontSize=12;align=center;" parent="1" vertex="1">
          <mxGeometry x="80" y="680" width="160" height="120" as="geometry" />
        </mxCell>
        <mxCell id="lRqvwbuOuGOCH_KBD1G7-30" style="edgeStyle=orthogonalEdgeStyle;rounded=0;orthogonalLoop=1;jettySize=auto;html=1;entryX=0;entryY=0.5;entryDx=0;entryDy=0;" parent="1" source="lRqvwbuOuGOCH_KBD1G7-14" edge="1">
          <mxGeometry relative="1" as="geometry">
            <mxPoint x="880" y="1060" as="targetPoint" />
          </mxGeometry>
        </mxCell>
        <mxCell id="lRqvwbuOuGOCH_KBD1G7-31" style="edgeStyle=orthogonalEdgeStyle;rounded=0;orthogonalLoop=1;jettySize=auto;html=1;entryX=1;entryY=0.5;entryDx=0;entryDy=0;" parent="1" source="lRqvwbuOuGOCH_KBD1G7-14" edge="1">
          <mxGeometry relative="1" as="geometry">
            <mxPoint x="640" y="1060" as="targetPoint" />
          </mxGeometry>
        </mxCell>
        <mxCell id="lRqvwbuOuGOCH_KBD1G7-14" value="Тестирование задачи" style="ellipse;whiteSpace=wrap;html=1;rounded=0;shadow=1;comic=0;labelBackgroundColor=none;strokeWidth=1;fontFamily=Verdana;fontSize=12;align=center;" parent="1" vertex="1">
          <mxGeometry x="680" y="1000" width="160" height="120" as="geometry" />
        </mxCell>
        <mxCell id="lRqvwbuOuGOCH_KBD1G7-29" style="edgeStyle=orthogonalEdgeStyle;rounded=0;orthogonalLoop=1;jettySize=auto;html=1;" parent="1" source="lRqvwbuOuGOCH_KBD1G7-15" target="lRqvwbuOuGOCH_KBD1G7-14" edge="1">
          <mxGeometry relative="1" as="geometry" />
        </mxCell>
        <mxCell id="lRqvwbuOuGOCH_KBD1G7-15" value="Реализация задачи" style="ellipse;whiteSpace=wrap;html=1;rounded=0;shadow=1;comic=0;labelBackgroundColor=none;strokeWidth=1;fontFamily=Verdana;fontSize=12;align=center;" parent="1" vertex="1">
          <mxGeometry x="680" y="840" width="160" height="120" as="geometry" />
        </mxCell>
        <mxCell id="lRqvwbuOuGOCH_KBD1G7-34" style="edgeStyle=orthogonalEdgeStyle;rounded=0;orthogonalLoop=1;jettySize=auto;html=1;" parent="1" source="lRqvwbuOuGOCH_KBD1G7-18" target="lRqvwbuOuGOCH_KBD1G7-7" edge="1">
          <mxGeometry relative="1" as="geometry">
            <mxPoint x="670" y="740" as="targetPoint" />
          </mxGeometry>
        </mxCell>
        <mxCell id="lRqvwbuOuGOCH_KBD1G7-18" value="Выполнение ветки" style="ellipse;whiteSpace=wrap;html=1;rounded=0;shadow=1;comic=0;labelBackgroundColor=none;strokeWidth=1;fontFamily=Verdana;fontSize=12;align=center;" parent="1" vertex="1">
          <mxGeometry x="480" y="680" width="160" height="120" as="geometry" />
        </mxCell>
        <mxCell id="lRqvwbuOuGOCH_KBD1G7-37" style="edgeStyle=orthogonalEdgeStyle;rounded=0;orthogonalLoop=1;jettySize=auto;html=1;entryX=0.5;entryY=1;entryDx=0;entryDy=0;" parent="1" source="lRqvwbuOuGOCH_KBD1G7-24" target="lRqvwbuOuGOCH_KBD1G7-14" edge="1">
          <mxGeometry relative="1" as="geometry" />
        </mxCell>
        <mxCell id="lRqvwbuOuGOCH_KBD1G7-24" value="Решение бага" style="ellipse;whiteSpace=wrap;html=1;rounded=0;shadow=1;comic=0;labelBackgroundColor=none;strokeWidth=1;fontFamily=Verdana;fontSize=12;align=center;" parent="1" vertex="1">
          <mxGeometry x="870" y="1160" width="160" height="120" as="geometry" />
        </mxCell>
        <mxCell id="lRqvwbuOuGOCH_KBD1G7-28" style="edgeStyle=orthogonalEdgeStyle;rounded=0;orthogonalLoop=1;jettySize=auto;html=1;entryX=0;entryY=0.5;entryDx=0;entryDy=0;" parent="1" source="lRqvwbuOuGOCH_KBD1G7-27" target="lRqvwbuOuGOCH_KBD1G7-3" edge="1">
          <mxGeometry relative="1" as="geometry" />
        </mxCell>
        <mxCell id="lRqvwbuOuGOCH_KBD1G7-27" value="Введение ранее не запланированного" style="ellipse;whiteSpace=wrap;html=1;rounded=0;shadow=1;comic=0;labelBackgroundColor=none;strokeWidth=1;fontFamily=Verdana;fontSize=12;align=center;" parent="1" vertex="1">
          <mxGeometry x="-320" y="880" width="160" height="120" as="geometry" />
        </mxCell>
        <mxCell id="lRqvwbuOuGOCH_KBD1G7-38" style="edgeStyle=orthogonalEdgeStyle;rounded=0;orthogonalLoop=1;jettySize=auto;html=1;entryX=0.5;entryY=0;entryDx=0;entryDy=0;" parent="1" source="lRqvwbuOuGOCH_KBD1G7-32" edge="1">
          <mxGeometry relative="1" as="geometry">
            <mxPoint x="570" y="1160" as="targetPoint" />
          </mxGeometry>
        </mxCell>
        <mxCell id="lRqvwbuOuGOCH_KBD1G7-32" value="&lt;span style=&quot;font-family: Verdana;&quot;&gt;При прохождении тестирование&lt;/span&gt;" style="rounded=0;whiteSpace=wrap;html=1;" parent="1" vertex="1">
          <mxGeometry x="500" y="1030" width="140" height="60" as="geometry" />
        </mxCell>
        <mxCell id="lRqvwbuOuGOCH_KBD1G7-35" style="edgeStyle=orthogonalEdgeStyle;rounded=0;orthogonalLoop=1;jettySize=auto;html=1;entryX=0.5;entryY=0;entryDx=0;entryDy=0;" parent="1" source="lRqvwbuOuGOCH_KBD1G7-33" target="lRqvwbuOuGOCH_KBD1G7-24" edge="1">
          <mxGeometry relative="1" as="geometry" />
        </mxCell>
        <mxCell id="lRqvwbuOuGOCH_KBD1G7-33" value="&lt;span style=&quot;font-family: Verdana;&quot;&gt;При нахождении бага&lt;/span&gt;" style="rounded=0;whiteSpace=wrap;html=1;" parent="1" vertex="1">
          <mxGeometry x="880" y="1030" width="140" height="60" as="geometry" />
        </mxCell>
        <mxCell id="lRqvwbuOuGOCH_KBD1G7-43" style="edgeStyle=orthogonalEdgeStyle;rounded=0;orthogonalLoop=1;jettySize=auto;html=1;exitX=0;exitY=0.5;exitDx=0;exitDy=0;entryX=1;entryY=0.5;entryDx=0;entryDy=0;" parent="1" source="lRqvwbuOuGOCH_KBD1G7-39" edge="1">
          <mxGeometry relative="1" as="geometry">
            <mxPoint x="410" y="1210" as="targetPoint" />
          </mxGeometry>
        </mxCell>
        <mxCell id="lRqvwbuOuGOCH_KBD1G7-39" value="&lt;span style=&quot;font-family: Verdana;&quot;&gt;Задача падает в выполнение&lt;/span&gt;" style="rounded=1;whiteSpace=wrap;html=1;" parent="1" vertex="1">
          <mxGeometry x="495" y="1160" width="150" height="100" as="geometry" />
        </mxCell>
        <mxCell id="lRqvwbuOuGOCH_KBD1G7-40" value="Отправка в готовое" style="ellipse;whiteSpace=wrap;html=1;rounded=0;shadow=1;comic=0;labelBackgroundColor=none;strokeWidth=1;fontFamily=Verdana;fontSize=12;align=center;" parent="1" vertex="1">
          <mxGeometry x="-110" y="1280" width="160" height="120" as="geometry" />
        </mxCell>
        <mxCell id="lRqvwbuOuGOCH_KBD1G7-50" style="edgeStyle=orthogonalEdgeStyle;rounded=0;orthogonalLoop=1;jettySize=auto;html=1;" parent="1" source="lRqvwbuOuGOCH_KBD1G7-42" target="lRqvwbuOuGOCH_KBD1G7-48" edge="1">
          <mxGeometry relative="1" as="geometry" />
        </mxCell>
        <mxCell id="lRqvwbuOuGOCH_KBD1G7-60" style="edgeStyle=orthogonalEdgeStyle;rounded=0;orthogonalLoop=1;jettySize=auto;html=1;entryX=0;entryY=0.5;entryDx=0;entryDy=0;" parent="1" source="lRqvwbuOuGOCH_KBD1G7-42" target="lRqvwbuOuGOCH_KBD1G7-53" edge="1">
          <mxGeometry relative="1" as="geometry" />
        </mxCell>
        <mxCell id="lRqvwbuOuGOCH_KBD1G7-42" value="Тестирование всей ветки" style="ellipse;whiteSpace=wrap;html=1;rounded=0;shadow=1;comic=0;labelBackgroundColor=none;strokeWidth=1;fontFamily=Verdana;fontSize=12;align=center;" parent="1" vertex="1">
          <mxGeometry x="280" y="1280" width="160" height="120" as="geometry" />
        </mxCell>
        <mxCell id="lRqvwbuOuGOCH_KBD1G7-46" style="edgeStyle=orthogonalEdgeStyle;rounded=0;orthogonalLoop=1;jettySize=auto;html=1;entryX=0.5;entryY=0;entryDx=0;entryDy=0;" parent="1" source="lRqvwbuOuGOCH_KBD1G7-44" target="lRqvwbuOuGOCH_KBD1G7-42" edge="1">
          <mxGeometry relative="1" as="geometry" />
        </mxCell>
        <mxCell id="lRqvwbuOuGOCH_KBD1G7-44" value="&lt;span style=&quot;font-family: Verdana;&quot;&gt;При выполнении ветки&lt;/span&gt;" style="rounded=0;whiteSpace=wrap;html=1;" parent="1" vertex="1">
          <mxGeometry x="290" y="1180" width="140" height="60" as="geometry" />
        </mxCell>
        <mxCell id="lRqvwbuOuGOCH_KBD1G7-70" style="edgeStyle=orthogonalEdgeStyle;rounded=0;orthogonalLoop=1;jettySize=auto;html=1;exitX=0.5;exitY=1;exitDx=0;exitDy=0;" parent="1" source="lRqvwbuOuGOCH_KBD1G7-48" target="lRqvwbuOuGOCH_KBD1G7-69" edge="1">
          <mxGeometry relative="1" as="geometry" />
        </mxCell>
        <mxCell id="lRqvwbuOuGOCH_KBD1G7-48" value="&lt;span style=&quot;font-family: Verdana;&quot;&gt;При прохождении тестирование&lt;/span&gt;" style="rounded=0;whiteSpace=wrap;html=1;" parent="1" vertex="1">
          <mxGeometry x="100" y="1310" width="140" height="60" as="geometry" />
        </mxCell>
        <mxCell id="lRqvwbuOuGOCH_KBD1G7-56" style="edgeStyle=orthogonalEdgeStyle;rounded=0;orthogonalLoop=1;jettySize=auto;html=1;" parent="1" source="lRqvwbuOuGOCH_KBD1G7-49" target="lRqvwbuOuGOCH_KBD1G7-55" edge="1">
          <mxGeometry relative="1" as="geometry" />
        </mxCell>
        <mxCell id="lRqvwbuOuGOCH_KBD1G7-59" style="edgeStyle=orthogonalEdgeStyle;rounded=0;orthogonalLoop=1;jettySize=auto;html=1;exitX=1;exitY=0.5;exitDx=0;exitDy=0;entryX=0;entryY=0.5;entryDx=0;entryDy=0;" parent="1" source="lRqvwbuOuGOCH_KBD1G7-49" target="lRqvwbuOuGOCH_KBD1G7-52" edge="1">
          <mxGeometry relative="1" as="geometry" />
        </mxCell>
        <mxCell id="lRqvwbuOuGOCH_KBD1G7-49" value="Тестирование всего проекта" style="ellipse;whiteSpace=wrap;html=1;rounded=0;shadow=1;comic=0;labelBackgroundColor=none;strokeWidth=1;fontFamily=Verdana;fontSize=12;align=center;" parent="1" vertex="1">
          <mxGeometry x="90" y="1590" width="160" height="120" as="geometry" />
        </mxCell>
        <mxCell id="lRqvwbuOuGOCH_KBD1G7-76" style="edgeStyle=orthogonalEdgeStyle;rounded=0;orthogonalLoop=1;jettySize=auto;html=1;" parent="1" source="lRqvwbuOuGOCH_KBD1G7-52" target="lRqvwbuOuGOCH_KBD1G7-75" edge="1">
          <mxGeometry relative="1" as="geometry" />
        </mxCell>
        <mxCell id="lRqvwbuOuGOCH_KBD1G7-52" value="&lt;span style=&quot;font-family: Verdana;&quot;&gt;При нахождении бага&lt;/span&gt;" style="rounded=0;whiteSpace=wrap;html=1;" parent="1" vertex="1">
          <mxGeometry x="290" y="1620" width="140" height="60" as="geometry" />
        </mxCell>
        <mxCell id="lRqvwbuOuGOCH_KBD1G7-73" style="edgeStyle=orthogonalEdgeStyle;rounded=0;orthogonalLoop=1;jettySize=auto;html=1;" parent="1" source="lRqvwbuOuGOCH_KBD1G7-53" target="lRqvwbuOuGOCH_KBD1G7-72" edge="1">
          <mxGeometry relative="1" as="geometry" />
        </mxCell>
        <mxCell id="lRqvwbuOuGOCH_KBD1G7-53" value="&lt;span style=&quot;font-family: Verdana;&quot;&gt;При нахождении бага&lt;/span&gt;" style="rounded=0;whiteSpace=wrap;html=1;" parent="1" vertex="1">
          <mxGeometry x="480" y="1310" width="140" height="60" as="geometry" />
        </mxCell>
        <mxCell id="lRqvwbuOuGOCH_KBD1G7-58" style="edgeStyle=orthogonalEdgeStyle;rounded=0;orthogonalLoop=1;jettySize=auto;html=1;exitX=0.5;exitY=0;exitDx=0;exitDy=0;entryX=0.5;entryY=1;entryDx=0;entryDy=0;" parent="1" source="lRqvwbuOuGOCH_KBD1G7-55" target="lRqvwbuOuGOCH_KBD1G7-40" edge="1">
          <mxGeometry relative="1" as="geometry" />
        </mxCell>
        <mxCell id="lRqvwbuOuGOCH_KBD1G7-55" value="&lt;span style=&quot;font-family: Verdana;&quot;&gt;При прохождении тестирование&lt;/span&gt;" style="rounded=0;whiteSpace=wrap;html=1;" parent="1" vertex="1">
          <mxGeometry x="-100" y="1460" width="140" height="60" as="geometry" />
        </mxCell>
        <mxCell id="lRqvwbuOuGOCH_KBD1G7-71" style="edgeStyle=orthogonalEdgeStyle;rounded=0;orthogonalLoop=1;jettySize=auto;html=1;" parent="1" source="lRqvwbuOuGOCH_KBD1G7-69" target="lRqvwbuOuGOCH_KBD1G7-49" edge="1">
          <mxGeometry relative="1" as="geometry" />
        </mxCell>
        <mxCell id="lRqvwbuOuGOCH_KBD1G7-69" value="Сливание ветки" style="ellipse;whiteSpace=wrap;html=1;rounded=0;shadow=1;comic=0;labelBackgroundColor=none;strokeWidth=1;fontFamily=Verdana;fontSize=12;align=center;" parent="1" vertex="1">
          <mxGeometry x="90" y="1430" width="160" height="120" as="geometry" />
        </mxCell>
        <mxCell id="lRqvwbuOuGOCH_KBD1G7-74" style="edgeStyle=orthogonalEdgeStyle;rounded=0;orthogonalLoop=1;jettySize=auto;html=1;entryX=0.5;entryY=1;entryDx=0;entryDy=0;" parent="1" source="lRqvwbuOuGOCH_KBD1G7-72" target="lRqvwbuOuGOCH_KBD1G7-42" edge="1">
          <mxGeometry relative="1" as="geometry" />
        </mxCell>
        <mxCell id="lRqvwbuOuGOCH_KBD1G7-72" value="Решение бага" style="ellipse;whiteSpace=wrap;html=1;rounded=0;shadow=1;comic=0;labelBackgroundColor=none;strokeWidth=1;fontFamily=Verdana;fontSize=12;align=center;" parent="1" vertex="1">
          <mxGeometry x="470" y="1420" width="160" height="120" as="geometry" />
        </mxCell>
        <mxCell id="lRqvwbuOuGOCH_KBD1G7-77" style="edgeStyle=orthogonalEdgeStyle;rounded=0;orthogonalLoop=1;jettySize=auto;html=1;entryX=0.5;entryY=1;entryDx=0;entryDy=0;" parent="1" source="lRqvwbuOuGOCH_KBD1G7-75" target="lRqvwbuOuGOCH_KBD1G7-49" edge="1">
          <mxGeometry relative="1" as="geometry" />
        </mxCell>
        <mxCell id="lRqvwbuOuGOCH_KBD1G7-75" value="Решение бага" style="ellipse;whiteSpace=wrap;html=1;rounded=0;shadow=1;comic=0;labelBackgroundColor=none;strokeWidth=1;fontFamily=Verdana;fontSize=12;align=center;" parent="1" vertex="1">
          <mxGeometry x="280" y="1720" width="160" height="120" as="geometry" />
        </mxCell>
        <mxCell id="rJpCT1kLhdsQ0lRlRKhG-3" style="edgeStyle=orthogonalEdgeStyle;rounded=0;orthogonalLoop=1;jettySize=auto;html=1;" edge="1" parent="1" source="rJpCT1kLhdsQ0lRlRKhG-1" target="lRqvwbuOuGOCH_KBD1G7-9">
          <mxGeometry relative="1" as="geometry" />
        </mxCell>
        <mxCell id="rJpCT1kLhdsQ0lRlRKhG-1" value="Написание архитектуры&lt;div&gt;и связей&amp;nbsp;&lt;/div&gt;" style="ellipse;whiteSpace=wrap;html=1;rounded=0;shadow=1;comic=0;labelBackgroundColor=none;strokeWidth=1;fontFamily=Verdana;fontSize=12;align=center;" vertex="1" parent="1">
          <mxGeometry x="-120" y="520" width="160" height="120" as="geometry" />
        </mxCell>
      </root>
    </mxGraphModel>
  </diagram>
</mxfile>
